<svg width="32" height="32" viewBox="0 0 32 32" fill="none" xmlns="http://www.w3.org/2000/svg">
<path fill-rule="evenodd" clip-rule="evenodd" d="M26.6667 9.33342C24.4575 9.33342 22.6667 7.54255 22.6667 5.33342C22.6667 4.61357 22.8568 3.93813 23.1896 3.35459C22.7984 3.27354 22.3864 3.21219 21.9514 3.16505C20.4285 3.00006 18.509 3.00007 16.0603 3.00008H15.9397C13.491 3.00007 11.5715 3.00006 10.0486 3.16505C8.49459 3.33342 7.23541 3.68318 6.16031 4.46428C5.50945 4.93716 4.93708 5.50954 4.4642 6.1604C3.6831 7.23549 3.33334 8.49467 3.16497 10.0487C2.99998 11.5716 2.99999 13.491 3 15.9397V16.0604C2.99999 18.5091 2.99998 20.4286 3.16497 21.9514C3.33334 23.5055 3.6831 24.7647 4.4642 25.8398C4.93708 26.4906 5.50945 27.063 6.16031 27.5359C7.23541 28.317 8.49459 28.6667 10.0486 28.8351C11.5715 29.0001 13.491 29.0001 15.9396 29.0001H16.0605C18.5091 29.0001 20.4285 29.0001 21.9514 28.8351C23.5054 28.6667 24.7646 28.317 25.8397 27.5359C26.4905 27.063 27.0629 26.4906 27.5358 25.8398C28.3169 24.7647 28.6667 23.5055 28.835 21.9514C29 20.4286 29 18.5091 29 16.0604V15.9396C29 13.491 29 11.5715 28.835 10.0487C28.7879 9.61366 28.7265 9.20172 28.6455 8.81045C28.062 9.14326 27.3865 9.33342 26.6667 9.33342ZM23.1071 11.2927C23.6029 11.536 23.8077 12.1351 23.5645 12.631L21.6174 16.6004C20.2539 19.3799 16.2467 19.2441 15.0745 16.3787C14.5556 15.1103 12.7818 15.0503 12.1782 16.2806L10.2311 20.25C9.98791 20.7458 9.38878 20.9506 8.89293 20.7074C8.39709 20.4642 8.19231 19.865 8.43553 19.3692L10.3826 15.3998C11.7461 12.6203 15.7533 12.756 16.9255 15.6214C17.4444 16.8898 19.2182 16.9499 19.8218 15.7196L21.7689 11.7502C22.0121 11.2543 22.6112 11.0495 23.1071 11.2927Z" fill="white"/>
<path d="M24 5.33341C24 6.80617 25.1939 8.00008 26.6667 8.00008C28.1394 8.00008 29.3333 6.80617 29.3333 5.33341C29.3333 3.86066 28.1394 2.66675 26.6667 2.66675C25.1939 2.66675 24 3.86066 24 5.33341Z" fill="white"/>
</svg>
