<svg width="33" height="32" viewBox="0 0 33 32" fill="none" xmlns="http://www.w3.org/2000/svg">
<path fill-rule="evenodd" clip-rule="evenodd" d="M16.6668 0.333252C12.7715 0.333252 9.55505 3.23794 9.06482 6.99992L8.18139 6.99992C6.85381 6.99988 5.75288 6.99984 4.88887 7.12057C3.98055 7.24748 3.16437 7.52771 2.54366 8.22121C1.92296 8.9147 1.73457 9.75684 1.70874 10.6736C1.68417 11.5457 1.80578 12.6399 1.95243 13.9593L2.36295 17.654C2.66965 20.4145 2.91053 22.5825 3.31967 24.2676C3.73903 25.9949 4.36275 27.3428 5.52068 28.3792C6.67973 29.4166 8.09503 29.8871 9.86755 30.1128C11.5981 30.3333 13.7956 30.3333 16.5954 30.3333H16.7381C19.5379 30.3333 21.7355 30.3333 23.4661 30.1128C25.2386 29.8871 26.6539 29.4166 27.8129 28.3792C28.9708 27.3428 29.5946 25.9949 30.0139 24.2676C30.423 22.5826 30.6639 20.4146 30.9706 17.6542L31.3812 13.9593C31.5278 12.6399 31.6494 11.5457 31.6249 10.6736C31.599 9.75684 31.4106 8.9147 30.7899 8.22121C30.1692 7.52771 29.353 7.24748 28.4447 7.12057C27.5807 6.99984 26.4798 6.99988 25.1522 6.99992L24.2688 6.99992C23.7786 3.23803 20.5621 0.333252 16.6668 0.333252ZM16.6668 2.33325C19.4552 2.33325 21.7734 4.34742 22.2456 6.99992H11.088C11.5601 4.3475 13.8784 2.33325 16.6668 2.33325ZM9.37394 12.6261C8.98341 12.2356 8.35025 12.2356 7.95972 12.6261C7.5692 13.0167 7.5692 13.6498 7.95972 14.0404L8.75972 14.8404C13.1267 19.2073 20.207 19.2073 24.5739 14.8404L25.3739 14.0404C25.7645 13.6498 25.7645 13.0167 25.3739 12.6261C24.9834 12.2356 24.3502 12.2356 23.9597 12.6261L23.1597 13.4261C19.5738 17.0121 13.7599 17.0121 10.1739 13.4261L9.37394 12.6261Z" fill="white"/>
</svg>
