<svg width="32" height="32" viewBox="0 0 32 32" fill="none" xmlns="http://www.w3.org/2000/svg">
<path fill-rule="evenodd" clip-rule="evenodd" d="M6.7481 3.93997C6.88829 3.83811 7.03326 3.74441 7.18391 3.6582C7.2323 3.76598 7.30075 3.86695 7.38926 3.95545C9.11 5.67612 10.4607 7.02464 11.6513 7.97757C12.8566 8.94229 13.9854 9.57553 15.286 9.78152C16.0806 9.90737 16.8901 9.90737 17.6847 9.78152C18.9489 9.58128 20.0506 8.97743 21.2183 8.05786C22.3711 7.15001 23.6652 5.87045 25.2942 4.24258C25.3465 4.19035 25.3918 4.13377 25.4301 4.07402C25.9227 4.45776 26.3593 4.90905 26.7268 5.41485C28 7.16728 28 9.66711 28 14.6667V17.3334C28 22.3331 28 24.8329 26.7268 26.5853C26.3156 27.1513 25.8179 27.649 25.2519 28.0602C23.4995 29.3334 20.9996 29.3334 16 29.3334C11.0004 29.3334 8.50054 29.3334 6.7481 28.0602C6.18213 27.649 5.68442 27.1513 5.27322 26.5853C4 24.8329 4 22.3331 4 17.3334V14.6667C4 9.66711 4 7.16728 5.27322 5.41485C5.68442 4.84888 6.18213 4.35117 6.7481 3.93997ZM10.6667 12.3334C10.1144 12.3334 9.66667 12.7811 9.66667 13.3334C9.66667 13.8857 10.1144 14.3334 10.6667 14.3334H21.3333C21.8856 14.3334 22.3333 13.8857 22.3333 13.3334C22.3333 12.7811 21.8856 12.3334 21.3333 12.3334H10.6667ZM13.3333 17.6667C12.781 17.6667 12.3333 18.1145 12.3333 18.6667C12.3333 19.219 12.781 19.6667 13.3333 19.6667H18.6667C19.219 19.6667 19.6667 19.219 19.6667 18.6667C19.6667 18.1145 19.219 17.6667 18.6667 17.6667H13.3333ZM10.6667 23.0001C10.1144 23.0001 9.66667 23.4478 9.66667 24.0001C9.66667 24.5524 10.1144 25.0001 10.6667 25.0001H21.3333C21.8856 25.0001 22.3333 24.5524 22.3333 24.0001C22.3333 23.4478 21.8856 23.0001 21.3333 23.0001H10.6667Z" fill="white"/>
<path d="M16 2.66675C19.5999 2.66675 21.9038 2.66675 23.5658 3.14204C22.072 4.63193 20.9546 5.71974 19.9809 6.48661C18.9548 7.29468 18.1683 7.67999 17.3718 7.80614C16.7845 7.89916 16.1862 7.89916 15.5989 7.80614C14.7795 7.67636 13.9709 7.27241 12.901 6.41611C11.9048 5.6188 10.7587 4.49399 9.22213 2.95965C10.8116 2.66675 12.9366 2.66675 16 2.66675Z" fill="white"/>
</svg>
