<svg width="14" height="14" viewBox="0 0 14 14" fill="none" xmlns="http://www.w3.org/2000/svg">
<path d="M4.40789 0.983366C3.7065 0.338878 2.62839 0.338878 1.927 0.983366C1.89828 1.00976 1.86761 1.04043 1.82779 1.08026L1.22946 1.67859C0.627387 2.28067 0.374641 3.14861 0.55935 3.9798C1.60733 8.69571 5.29035 12.3787 10.0063 13.4267C10.8374 13.6114 11.7054 13.3587 12.3075 12.7566L12.9057 12.1583C12.9456 12.1185 12.9763 12.0878 13.0027 12.0591C13.6472 11.3577 13.6472 10.2796 13.0027 9.57817C12.9763 9.54943 12.9456 9.51875 12.9057 9.47891L11.9262 8.4994C11.2462 7.81933 10.2191 7.62483 9.3375 8.00914C8.83277 8.22915 8.2448 8.1178 7.85547 7.72846L6.2576 6.13059C5.86826 5.74125 5.75691 5.15329 5.97692 4.64855C6.36123 3.76691 6.16673 2.73989 5.48666 2.05982L4.50711 1.08027C4.46728 1.04044 4.43661 1.00976 4.40789 0.983366Z" fill="#2DACCF"/>
</svg>
