<svg width="32" height="32" viewBox="0 0 32 32" fill="none" xmlns="http://www.w3.org/2000/svg">
<path d="M17.3781 4.33325C19.207 4.33325 20.641 4.33324 21.7934 4.4274C22.9669 4.52328 23.9364 4.72176 24.8139 5.16887C26.2565 5.9039 27.4294 7.07675 28.1644 8.51933C28.7005 9.57161 28.8857 10.7764 28.9553 12.3333H3.04472C3.11429 10.7764 3.29945 9.57161 3.83562 8.51933C4.57065 7.07675 5.7435 5.9039 7.18607 5.16887C8.06358 4.72176 9.03306 4.52328 10.2066 4.4274C11.359 4.33324 12.793 4.33325 14.6219 4.33325H17.3781Z" fill="white"/>
<path fill-rule="evenodd" clip-rule="evenodd" d="M3.00303 14.3333C3 14.8453 3 15.3972 3 15.9922V16.0447C2.99999 17.8736 2.99999 19.3075 3.09415 20.46C3.19003 21.6335 3.3885 22.603 3.83562 23.4805C4.57065 24.9231 5.7435 26.0959 7.18607 26.831C8.06358 27.2781 9.03306 27.4766 10.2066 27.5724C11.359 27.6666 12.7928 27.6666 14.6216 27.6666H17.3781C19.2069 27.6666 20.641 27.6666 21.7934 27.5724C22.9669 27.4766 23.9364 27.2781 24.8139 26.831C26.2565 26.0959 27.4294 24.9231 28.1644 23.4805C28.6115 22.603 28.81 21.6335 28.9059 20.46C29 19.3076 29 17.8738 29 16.045V15.9922C29 15.3972 29 14.8453 28.997 14.3333H3.00303ZM16.3333 22.6666C16.3333 22.1143 16.781 21.6666 17.3333 21.6666H22.6667C23.219 21.6666 23.6667 22.1143 23.6667 22.6666C23.6667 23.2189 23.219 23.6666 22.6667 23.6666H17.3333C16.781 23.6666 16.3333 23.2189 16.3333 22.6666Z" fill="white"/>
</svg>
