<svg width="14" height="12" viewBox="0 0 14 12" fill="none" xmlns="http://www.w3.org/2000/svg">
<path d="M0.555492 2.27298C0.333344 3.09964 0.333344 4.24006 0.333344 6C0.333344 8.49982 0.333344 9.74973 0.969953 10.626C1.17555 10.9089 1.42441 11.1578 1.70739 11.3634C2.58361 12 3.83352 12 6.33334 12H7.66668C10.1665 12 11.4164 12 12.2926 11.3634C12.5756 11.1578 12.8245 10.9089 13.0301 10.626C13.6667 9.74973 13.6667 8.49982 13.6667 6C13.6667 4.23419 13.6667 3.09204 13.4423 2.26473L12.0405 3.66657C10.9523 4.75476 10.0995 5.60755 9.34467 6.18347C8.57205 6.77296 7.84355 7.11929 6.99992 7.11929C6.15628 7.11929 5.42779 6.77296 4.65517 6.18347C3.90033 5.60755 3.04755 4.75475 1.95937 3.66656L0.655913 2.3631L0.555492 2.27298Z" fill="#2DACCF"/>
<path d="M1.00001 1.33333L1.07257 1.39338L1.34392 1.6369L2.63943 2.9324C3.76053 4.05351 4.56655 4.85802 5.26175 5.38845C5.94542 5.91007 6.46284 6.11929 6.99992 6.11929C7.537 6.11929 8.05442 5.91007 8.73808 5.38845C9.43329 4.85802 10.2393 4.05351 11.3604 2.93241L12.899 1.3938L12.9828 1.31053C12.7772 1.02754 12.5756 0.842209 12.2926 0.63661C11.4164 0 10.1665 0 7.66668 0H6.33334C3.83352 0 2.58361 0 1.70739 0.63661C1.42441 0.842209 1.20561 1.05035 1.00001 1.33333Z" fill="#2DACCF"/>
</svg>
