<svg width="33" height="32" viewBox="0 0 33 32" fill="none" xmlns="http://www.w3.org/2000/svg">
<path d="M6.33333 8.00008C4.49238 8.00008 3 9.49247 3 11.3334C3 12.2419 3.36344 13.0655 3.95286 13.6667H28.7138C29.3032 13.0655 29.6667 12.2419 29.6667 11.3334C29.6667 9.49247 28.1743 8.00008 26.3333 8.00008H16.3333H6.33333Z" fill="white"/>
<path d="M16.3333 5.33341C16.3333 3.86066 17.5272 2.66675 19 2.66675C20.4728 2.66675 21.6667 3.86066 21.6667 5.33341C21.6667 6.80617 20.4728 8.00008 19 8.00008H16.3333V5.33341Z" fill="white"/>
<path d="M16.3333 5.33341C16.3333 3.86066 15.1394 2.66675 13.6667 2.66675C12.1939 2.66675 11 3.86066 11 5.33341C11 6.80617 12.1939 8.00008 13.6667 8.00008H16.3333V5.33341Z" fill="white"/>
<path d="M15.3333 15.6667H4.30387L4.308 15.8283C4.31954 16.2759 4.33332 16.8107 4.33332 17.5239C4.33332 20.7781 4.33332 22.4052 4.84079 23.6887C5.51742 25.4 6.81525 26.7596 8.44877 27.4684C9.6739 28.0001 11.227 28.0001 14.3333 28.0001H15.3333V15.6667Z" fill="white"/>
<path d="M17.3333 28.0001H18.3333C21.4396 28.0001 22.9927 28.0001 24.2179 27.4684C25.8514 26.7596 27.1492 25.4 27.8259 23.6887C28.3333 22.4052 28.3333 20.7781 28.3333 17.5239C28.3333 16.7229 28.3333 16.147 28.3258 15.6667H17.3333V28.0001Z" fill="white"/>
</svg>
