<svg width="12" height="15" viewBox="0 0 12 15" fill="none" xmlns="http://www.w3.org/2000/svg">
<path fill-rule="evenodd" clip-rule="evenodd" d="M7.85385 13.1337C9.39369 11.1701 11.3333 8.31736 11.3333 6.40588C11.3333 3.23624 8.94551 0.666748 5.99999 0.666748C3.05447 0.666748 0.666656 3.23624 0.666656 6.40588C0.666656 8.31736 2.60629 11.1701 4.14613 13.1337C4.94949 14.1582 5.35117 14.6704 5.99999 14.6704C6.64881 14.6704 7.05049 14.1582 7.85385 13.1337ZM5.99999 8.66675C4.89542 8.66675 3.99999 7.77132 3.99999 6.66675C3.99999 5.56218 4.89542 4.66675 5.99999 4.66675C7.10456 4.66675 7.99999 5.56218 7.99999 6.66675C7.99999 7.77132 7.10456 8.66675 5.99999 8.66675Z" fill="#2DACCF"/>
</svg>
