<svg width="10" height="15" viewBox="0 0 10 15" fill="none" xmlns="http://www.w3.org/2000/svg">
<path d="M5.83301 7.91699C7.66639 7.91699 9.16161 9.36108 9.24512 11.1738C9.24133 11.512 9.23404 11.7038 9.20801 11.8682C9.14916 12.2395 9.03037 12.5903 8.86328 12.9111C8.82654 12.9815 8.78749 13.0507 8.74609 13.1182C8.73947 13.129 8.73232 13.1397 8.72559 13.1504C8.6877 13.2106 8.6479 13.2696 8.60645 13.3271C8.59941 13.3369 8.59209 13.3467 8.58496 13.3564C8.5393 13.4185 8.49204 13.4794 8.44238 13.5381C8.38064 13.6111 8.31661 13.6824 8.24902 13.75C8.19398 13.805 8.13582 13.857 8.07715 13.9082C8.06415 13.9195 8.05126 13.9312 8.03809 13.9424C7.98066 13.991 7.92191 14.0382 7.86133 14.083C7.5695 14.2984 7.24187 14.4684 6.88867 14.583C6.80795 14.6092 6.72581 14.6321 6.64258 14.6523C6.63776 14.6535 6.63275 14.6541 6.62793 14.6553C6.54244 14.6756 6.45602 14.6942 6.36816 14.708L6.16113 14.7314C5.92932 14.7489 5.6021 14.75 5 14.75C4.19721 14.75 3.88272 14.7477 3.63184 14.708C3.53869 14.6932 3.44687 14.6744 3.35645 14.6523C3.27322 14.6321 3.19106 14.6092 3.11035 14.583C2.75749 14.4684 2.43026 14.2982 2.13867 14.083C2.07789 14.0381 2.01854 13.9911 1.96094 13.9424C1.88845 13.8811 1.81807 13.8171 1.75098 13.75C1.69547 13.6945 1.64242 13.6363 1.59082 13.5771C1.5795 13.5642 1.56777 13.5512 1.55664 13.5381C1.50701 13.4794 1.45971 13.4184 1.41406 13.3564C1.40693 13.3467 1.39961 13.3369 1.39258 13.3271C1.35114 13.2696 1.3113 13.2106 1.27344 13.1504C1.26671 13.1397 1.25955 13.129 1.25293 13.1182C1.21155 13.0507 1.17246 12.9815 1.13574 12.9111C1.00989 12.6694 0.911487 12.4104 0.845703 12.1387L0.791992 11.8682C0.765962 11.7038 0.757692 11.512 0.753906 11.1738C0.837388 9.36106 2.3336 7.91699 4.16699 7.91699H5.83301ZM5.75 0.505859C6.06722 0.510637 6.28813 0.520521 6.48535 0.551758C8.268 0.83422 9.66576 2.232 9.94824 4.01465C9.99954 4.33853 10 4.72586 10 5.5V8.72461C9.13068 7.33858 7.58986 6.41699 5.83301 6.41699H4.16699C2.41014 6.41699 0.869322 7.33858 0 8.72461V5.5C3.38582e-08 4.72586 0.000460253 4.33853 0.0517578 4.01465C0.334241 2.232 1.732 0.83422 3.51465 0.551758C3.71187 0.520521 3.93278 0.510637 4.25 0.505859V4.66699C4.25015 5.08108 4.58588 5.41699 5 5.41699C5.41412 5.41699 5.74985 5.08108 5.75 4.66699V0.505859Z" fill="#2DACCF"/>
</svg>
