<svg width="28" height="28" viewBox="0 0 28 28" fill="none" xmlns="http://www.w3.org/2000/svg">
<rect x="0.5" y="0.5" width="27" height="27" rx="1.5" stroke="#2DACCF"/>
<rect x="4" y="4" width="20" height="20" rx="2" fill="#2DACCF"/>
<path d="M13.7826 10C13.4136 10 13.0597 10.1466 12.7988 10.4075C12.5379 10.6684 12.3913 11.0223 12.3913 11.3913C12.3913 11.7603 12.5379 12.1142 12.7988 12.3751C13.0597 12.636 13.4136 12.7826 13.7826 12.7826C14.1516 12.7826 14.5055 12.636 14.7664 12.3751C15.0273 12.1142 15.1739 11.7603 15.1739 11.3913C15.1739 11.0223 15.0273 10.6684 14.7664 10.4075C14.5055 10.1466 14.1516 10 13.7826 10ZM11 14.8696L13.7826 18L16.5652 14.8696H11Z" fill="white"/>
</svg>
