<svg width="40" height="40" viewBox="0 0 40 40" fill="none" xmlns="http://www.w3.org/2000/svg">
<path d="M19 32H27.8C28.9201 32 29.4802 32 29.908 31.782C30.2843 31.5903 30.5903 31.2843 30.782 30.908C31 30.4802 31 29.9201 31 28.8V25.4C31 23.1598 31 22.0397 30.564 21.184C30.1805 20.4314 29.5686 19.8195 28.816 19.436C27.9603 19 26.8402 19 24.6 19H21M21 19V14C21 12.1362 21 11.2044 20.6955 10.4693C20.2895 9.48915 19.5108 8.71046 18.5307 8.30448C17.7956 8 16.8638 8 15 8C13.1362 8 12.2044 8 11.4693 8.30448C10.4892 8.71046 9.71046 9.48915 9.30448 10.4693C9 11.2044 9 12.1362 9 14V28.8C9 29.9201 9 30.4802 9.21799 30.908C9.40973 31.2843 9.71569 31.5903 10.092 31.782C10.5198 32 11.0799 32 12.2 32H21V19Z" stroke="white" stroke-width="2"/>
<path d="M12 12.7C12 12.3134 12.3134 12 12.7 12H13.3C13.6866 12 14 12.3134 14 12.7V13.3C14 13.6866 13.6866 14 13.3 14H12.7C12.3134 14 12 13.6866 12 13.3V12.7Z" fill="white"/>
<path d="M16 24.7C16 24.3134 16.3134 24 16.7 24H17.3C17.6866 24 18 24.3134 18 24.7V25.3C18 25.6866 17.6866 26 17.3 26H16.7C16.3134 26 16 25.6866 16 25.3V24.7Z" fill="white"/>
<path d="M23.5 28.2C23.5 27.8134 23.8134 27.5 24.2 27.5H24.8C25.1866 27.5 25.5 27.8134 25.5 28.2V28.8C25.5 29.1866 25.1866 29.5 24.8 29.5H24.2C23.8134 29.5 23.5 29.1866 23.5 28.8V28.2Z" fill="white"/>
<path d="M23.5 25.2C23.5 24.8134 23.8134 24.5 24.2 24.5H24.8C25.1866 24.5 25.5 24.8134 25.5 25.2V25.8C25.5 26.1866 25.1866 26.5 24.8 26.5H24.2C23.8134 26.5 23.5 26.1866 23.5 25.8V25.2Z" fill="white"/>
<path d="M23.5 22.2C23.5 21.8134 23.8134 21.5 24.2 21.5H24.8C25.1866 21.5 25.5 21.8134 25.5 22.2V22.8C25.5 23.1866 25.1866 23.5 24.8 23.5H24.2C23.8134 23.5 23.5 23.1866 23.5 22.8V22.2Z" fill="white"/>
<path d="M26.5 28.2C26.5 27.8134 26.8134 27.5 27.2 27.5H27.8C28.1866 27.5 28.5 27.8134 28.5 28.2V28.8C28.5 29.1866 28.1866 29.5 27.8 29.5H27.2C26.8134 29.5 26.5 29.1866 26.5 28.8V28.2Z" fill="white"/>
<path d="M26.5 25.2C26.5 24.8134 26.8134 24.5 27.2 24.5H27.8C28.1866 24.5 28.5 24.8134 28.5 25.2V25.8C28.5 26.1866 28.1866 26.5 27.8 26.5H27.2C26.8134 26.5 26.5 26.1866 26.5 25.8V25.2Z" fill="white"/>
<path d="M26.5 22.2C26.5 21.8134 26.8134 21.5 27.2 21.5H27.8C28.1866 21.5 28.5 21.8134 28.5 22.2V22.8C28.5 23.1866 28.1866 23.5 27.8 23.5H27.2C26.8134 23.5 26.5 23.1866 26.5 22.8V22.2Z" fill="white"/>
<path d="M12 19C12 18.7207 12 18.5811 12.0393 18.4688C12.1096 18.2677 12.2677 18.1096 12.4688 18.0393C12.5811 18 12.7207 18 13 18C13.2793 18 13.4189 18 13.5312 18.0393C13.7323 18.1096 13.8904 18.2677 13.9607 18.4688C14 18.5811 14 18.7207 14 19C14 19.2793 14 19.4189 13.9607 19.5312C13.8904 19.7323 13.7323 19.8904 13.5312 19.9607C13.4189 20 13.2793 20 13 20C12.7207 20 12.5811 20 12.4688 19.9607C12.2677 19.8904 12.1096 19.7323 12.0393 19.5312C12 19.4189 12 19.2793 12 19Z" fill="white"/>
<path d="M12 28C12 27.7207 12 27.5811 12.0393 27.4688C12.1096 27.2677 12.2677 27.1096 12.4688 27.0393C12.5811 27 12.7207 27 13 27C13.2793 27 13.4189 27 13.5312 27.0393C13.7323 27.1096 13.8904 27.2677 13.9607 27.4688C14 27.5811 14 27.7207 14 28C14 28.2793 14 28.4189 13.9607 28.5312C13.8904 28.7323 13.7323 28.8904 13.5312 28.9607C13.4189 29 13.2793 29 13 29C12.7207 29 12.5811 29 12.4688 28.9607C12.2677 28.8904 12.1096 28.7323 12.0393 28.5312C12 28.4189 12 28.2793 12 28Z" fill="white"/>
<path d="M12 16C12 15.7207 12 15.5811 12.0393 15.4688C12.1096 15.2677 12.2677 15.1096 12.4688 15.0393C12.5811 15 12.7207 15 13 15C13.2793 15 13.4189 15 13.5312 15.0393C13.7323 15.1096 13.8904 15.2677 13.9607 15.4688C14 15.5811 14 15.7207 14 16C14 16.2793 14 16.4189 13.9607 16.5312C13.8904 16.7323 13.7323 16.8904 13.5312 16.9607C13.4189 17 13.2793 17 13 17C12.7207 17 12.5811 17 12.4688 16.9607C12.2677 16.8904 12.1096 16.7323 12.0393 16.5312C12 16.4189 12 16.2793 12 16Z" fill="white"/>
<path d="M12 25C12 24.7207 12 24.5811 12.0393 24.4688C12.1096 24.2677 12.2677 24.1096 12.4688 24.0393C12.5811 24 12.7207 24 13 24C13.2793 24 13.4189 24 13.5312 24.0393C13.7323 24.1096 13.8904 24.2677 13.9607 24.4688C14 24.5811 14 24.7207 14 25C14 25.2793 14 25.4189 13.9607 25.5312C13.8904 25.7323 13.7323 25.8904 13.5312 25.9607C13.4189 26 13.2793 26 13 26C12.7207 26 12.5811 26 12.4688 25.9607C12.2677 25.8904 12.1096 25.7323 12.0393 25.5312C12 25.4189 12 25.2793 12 25Z" fill="white"/>
<path d="M12 22C12 21.7207 12 21.5811 12.0393 21.4688C12.1096 21.2677 12.2677 21.1096 12.4688 21.0393C12.5811 21 12.7207 21 13 21C13.2793 21 13.4189 21 13.5312 21.0393C13.7323 21.1096 13.8904 21.2677 13.9607 21.4688C14 21.5811 14 21.7207 14 22C14 22.2793 14 22.4189 13.9607 22.5312C13.8904 22.7323 13.7323 22.8904 13.5312 22.9607C13.4189 23 13.2793 23 13 23C12.7207 23 12.5811 23 12.4688 22.9607C12.2677 22.8904 12.1096 22.7323 12.0393 22.5312C12 22.4189 12 22.2793 12 22Z" fill="white"/>
<path d="M16 13C16 12.7207 16 12.5811 16.0393 12.4688C16.1096 12.2677 16.2677 12.1096 16.4688 12.0393C16.5811 12 16.7207 12 17 12C17.2793 12 17.4189 12 17.5312 12.0393C17.7323 12.1096 17.8904 12.2677 17.9607 12.4688C18 12.5811 18 12.7207 18 13C18 13.2793 18 13.4189 17.9607 13.5312C17.8904 13.7323 17.7323 13.8904 17.5312 13.9607C17.4189 14 17.2793 14 17 14C16.7207 14 16.5811 14 16.4688 13.9607C16.2677 13.8904 16.1096 13.7323 16.0393 13.5312C16 13.4189 16 13.2793 16 13Z" fill="white"/>
<path d="M16 19C16 18.7207 16 18.5811 16.0393 18.4688C16.1096 18.2677 16.2677 18.1096 16.4688 18.0393C16.5811 18 16.7207 18 17 18C17.2793 18 17.4189 18 17.5312 18.0393C17.7323 18.1096 17.8904 18.2677 17.9607 18.4688C18 18.5811 18 18.7207 18 19C18 19.2793 18 19.4189 17.9607 19.5312C17.8904 19.7323 17.7323 19.8904 17.5312 19.9607C17.4189 20 17.2793 20 17 20C16.7207 20 16.5811 20 16.4688 19.9607C16.2677 19.8904 16.1096 19.7323 16.0393 19.5312C16 19.4189 16 19.2793 16 19Z" fill="white"/>
<path d="M16 28C16 27.7207 16 27.5811 16.0393 27.4688C16.1096 27.2677 16.2677 27.1096 16.4688 27.0393C16.5811 27 16.7207 27 17 27C17.2793 27 17.4189 27 17.5312 27.0393C17.7323 27.1096 17.8904 27.2677 17.9607 27.4688C18 27.5811 18 27.7207 18 28C18 28.2793 18 28.4189 17.9607 28.5312C17.8904 28.7323 17.7323 28.8904 17.5312 28.9607C17.4189 29 17.2793 29 17 29C16.7207 29 16.5811 29 16.4688 28.9607C16.2677 28.8904 16.1096 28.7323 16.0393 28.5312C16 28.4189 16 28.2793 16 28Z" fill="white"/>
<path d="M16 16C16 15.7207 16 15.5811 16.0393 15.4688C16.1096 15.2677 16.2677 15.1096 16.4688 15.0393C16.5811 15 16.7207 15 17 15C17.2793 15 17.4189 15 17.5312 15.0393C17.7323 15.1096 17.8904 15.2677 17.9607 15.4688C18 15.5811 18 15.7207 18 16C18 16.2793 18 16.4189 17.9607 16.5312C17.8904 16.7323 17.7323 16.8904 17.5312 16.9607C17.4189 17 17.2793 17 17 17C16.7207 17 16.5811 17 16.4688 16.9607C16.2677 16.8904 16.1096 16.7323 16.0393 16.5312C16 16.4189 16 16.2793 16 16Z" fill="white"/>
<path d="M16 22C16 21.7207 16 21.5811 16.0393 21.4688C16.1096 21.2677 16.2677 21.1096 16.4688 21.0393C16.5811 21 16.7207 21 17 21C17.2793 21 17.4189 21 17.5312 21.0393C17.7323 21.1096 17.8904 21.2677 17.9607 21.4688C18 21.5811 18 21.7207 18 22C18 22.2793 18 22.4189 17.9607 22.5312C17.8904 22.7323 17.7323 22.8904 17.5312 22.9607C17.4189 23 17.2793 23 17 23C16.7207 23 16.5811 23 16.4688 22.9607C16.2677 22.8904 16.1096 22.7323 16.0393 22.5312C16 22.4189 16 22.2793 16 22Z" fill="white"/>
</svg>
