<svg width="40" height="40" viewBox="0 0 40 40" fill="none" xmlns="http://www.w3.org/2000/svg">
<path fill-rule="evenodd" clip-rule="evenodd" d="M20 7C20.5523 7 21 7.44772 21 8V9.04484C26.2771 9.52039 30.4796 13.7229 30.9552 19H32C32.5523 19 33 19.4477 33 20C33 20.5523 32.5523 21 32 21H30.9552C30.4796 26.2771 26.2771 30.4796 21 30.9552V32C21 32.5523 20.5523 33 20 33C19.4477 33 19 32.5523 19 32V30.9552C13.7229 30.4796 9.52039 26.2771 9.04484 21H8C7.44772 21 7 20.5523 7 20C7 19.4477 7.44772 19 8 19H9.04484C9.52039 13.7229 13.7229 9.52039 19 9.04484V8C19 7.44772 19.4477 7 20 7ZM19 11.0549C14.8284 11.5161 11.5161 14.8284 11.0549 19H12C12.5523 19 13 19.4477 13 20C13 20.5523 12.5523 21 12 21H11.0549C11.5161 25.1716 14.8284 28.4839 19 28.9451V28C19 27.4477 19.4477 27 20 27C20.5523 27 21 27.4477 21 28V28.9451C25.1716 28.4839 28.4839 25.1716 28.9451 21H28C27.4477 21 27 20.5523 27 20C27 19.4477 27.4477 19 28 19H28.9451C28.4839 14.8284 25.1716 11.5161 21 11.0549V12C21 12.5523 20.5523 13 20 13C19.4477 13 19 12.5523 19 12V11.0549ZM16 20C16 17.7909 17.7909 16 20 16C22.2091 16 24 17.7909 24 20C24 22.2091 22.2091 24 20 24C17.7909 24 16 22.2091 16 20Z" fill="white"/>
</svg>
