<svg width="60" height="60" viewBox="0 0 60 60" fill="none" xmlns="http://www.w3.org/2000/svg">
<g opacity="0.4">
<path fill-rule="evenodd" clip-rule="evenodd" d="M32.0919 26.2801C31.1745 27.9116 28.8256 27.9116 27.9081 26.2801L15.1406 3.57639C14.2409 1.97655 15.397 2.39281e-06 17.2325 1.70195e-06L42.7674 0C44.6031 -1.60462e-07 45.759 1.97655 44.8593 3.57639L32.0919 26.2801ZM26.2801 32.0919C27.9116 31.1745 27.9116 28.8255 26.2801 27.9081L3.57639 15.1405C1.97655 14.2409 1.1964e-06 15.397 1.11618e-06 17.2325L0 42.7674C-8.022e-08 44.6031 1.97655 45.759 3.57639 44.8593L26.2801 32.0919ZM32.0919 33.72C31.1745 32.0883 28.8256 32.0886 27.9081 33.72L15.1406 56.4237C14.2409 58.0236 15.397 60 17.2325 60H42.7674C44.6031 60 45.759 58.0233 44.8593 56.4237L32.0919 33.72ZM33.72 27.9081C32.0883 28.8256 32.0883 31.1745 33.72 32.0919L56.4237 44.8593C58.0236 45.759 60 44.6031 60 42.7674V17.2325C60 15.3971 58.0233 14.2409 56.4237 15.1406L33.72 27.9081Z" fill="#2DACCF"/>
</g>
</svg>
