<svg width="61" height="60" viewBox="0 0 61 60" fill="none" xmlns="http://www.w3.org/2000/svg">
<g opacity="0.4">
<path d="M51.3404 40.8397C49.5993 42.5808 46.7761 42.5808 45.0351 40.8397L37.3482 33.1525C35.6068 31.4115 35.6068 28.5885 37.3482 26.8473L45.0351 19.1603C46.7761 17.4192 49.5993 17.4192 51.3404 19.1603L59.0276 26.8473C60.7686 28.5885 60.7686 31.4115 59.0276 33.1525L51.3404 40.8397ZM15.6316 40.8397C13.8904 42.5808 11.0674 42.5808 9.32623 40.8397L1.63925 33.1525C-0.101917 31.4115 -0.10192 28.5885 1.63925 26.8473L9.32623 19.1603C11.0674 17.4192 13.8904 17.4192 15.6316 19.1603L23.3185 26.8473C25.0597 28.5885 25.0597 31.4115 23.3185 33.1525L15.6316 40.8397ZM33.4862 58.694C31.7448 60.4353 28.9219 60.4353 27.1807 58.694L19.4937 51.0071C17.7525 49.266 17.7525 46.4428 19.4937 44.7018L27.1807 37.0149C28.9219 35.2735 31.7448 35.2735 33.4862 37.0149L41.173 44.7018C42.9141 46.4428 42.9141 49.266 41.173 51.0071L33.4862 58.694ZM33.4862 22.9852C31.7448 24.7263 28.9219 24.7264 27.1807 22.9852L19.4937 15.2982C17.7525 13.557 17.7525 10.734 19.4937 8.99285L27.1807 1.30588C28.9219 -0.435292 31.7448 -0.435295 33.4862 1.30588L41.173 8.99285C42.9141 10.734 42.9141 13.557 41.173 15.2982L33.4862 22.9852Z" fill="#2DACCF"/>
</g>
</svg>
