<svg width="61" height="60" viewBox="0 0 61 60" fill="none" xmlns="http://www.w3.org/2000/svg">
<g opacity="0.4">
<path fill-rule="evenodd" clip-rule="evenodd" d="M15.6666 30C23.9509 30 30.6666 23.2843 30.6666 15C30.6666 23.2843 37.3824 30 45.6666 30C37.3824 30 30.6666 36.7158 30.6666 45C30.6666 36.7158 23.9509 30 15.6666 30ZM15.6666 30C7.38237 30 0.666626 36.7158 0.666626 45C0.666626 53.2842 7.38237 60 15.6666 60C23.9509 60 30.6666 53.2842 30.6666 45C30.6666 53.2842 37.3824 60 45.6666 60C53.9508 60 60.6666 53.2842 60.6666 45C60.6666 36.7158 53.9508 30 45.6666 30C53.9508 30 60.6666 23.2843 60.6666 15C60.6666 6.71574 53.9508 0 45.6666 0C37.3824 0 30.6666 6.71574 30.6666 15C30.6666 6.71574 23.9509 0 15.6666 0C7.38237 0 0.666626 6.71574 0.666626 15C0.666626 23.2843 7.38237 30 15.6666 30Z" fill="#2DACCF"/>
</g>
</svg>
